<svg xmlns="http://www.w3.org/2000/svg" width="32" height="32" class="icon" viewBox="0 0 1024 1024"><path fill="#e75934" d="M450.834 673.896c-40.894 0-81.787-15.565-112.919-46.696l-86.048-86.048c-62.264-62.265-62.264-163.576 0-225.84l200.779-200.779c62.263-62.263 163.574-62.265 225.839 0l86.048 86.048c44.138 44.137 58.414 110.595 36.372 169.309-5.801 15.455-23.03 23.278-38.487 17.478-15.454-5.802-23.279-23.033-17.477-38.487 13.82-36.814 4.919-78.434-22.677-106.03l-86.048-86.048c-38.957-38.957-102.343-38.957-141.3 0l-200.78 200.779c-38.956 38.957-38.956 102.343 0 141.3l86.048 86.048c38.957 38.957 102.343 38.955 141.3 0l65.97-65.969c11.672-11.673 30.596-11.674 42.27-.001 11.673 11.673 11.673 30.599 0 42.27l-65.97 65.971c-31.132 31.13-72.026 46.695-112.92 46.695"/><path fill="#e75934" d="M451.79 959.842c-42.656 0-82.758-16.61-112.919-46.773l-86.048-86.045c-48.417-48.418-60.661-122.128-30.465-183.42 7.295-14.807 25.213-20.899 40.021-13.603s20.898 25.213 13.603 40.022c-18.877 38.316-11.197 84.424 19.111 114.731l86.048 86.047c18.871 18.872 43.962 29.265 70.65 29.265s51.779-10.393 70.65-29.263l200.779-200.78c18.871-18.871 29.264-43.961 29.264-70.648 0-26.689-10.393-51.779-29.264-70.651l-86.048-86.047c-38.957-38.957-102.343-38.957-141.3 0l-64.058 64.059c-11.673 11.67-30.597 11.673-42.27 0s-11.673-30.598 0-42.27l64.058-64.058c62.265-62.265 163.576-62.263 225.839 0l86.048 86.048c30.162 30.163 46.773 70.265 46.773 112.92s-16.611 82.757-46.773 112.919L564.71 913.07c-30.162 30.162-70.264 46.772-112.92 46.772"/></svg>