<svg xmlns="http://www.w3.org/2000/svg" width="32" height="32" class="icon" viewBox="0 0 1024 1024"><path fill="#7ccdff" d="M923.136 969.557H193.024V59.904h521.387l208.725 207.701z"/><path fill="#4191fb" d="m912.896 253.952 2.56 671.915a27.897 27.897 0 0 1-27.99 27.989H237.91a27.897 27.897 0 0 1-27.989-27.99V96.94a27.897 27.897 0 0 1 27.99-27.99l493.397-1.024-38.912-39.936h-453.12c-36.352 0-65.707 29.355-65.707 65.707V929.28c0 36.352 29.355 65.707 65.707 65.707H886.1c36.352 0 65.707-29.355 65.707-65.707V293.888z"/><path fill="#c7e2ff" d="M692.395 222.72c0 39.424 31.914 71.339 71.338 71.339H951.98L692.395 27.989z"/><path fill="#4191fb" d="M557.568 482.304H158.72c-50.347 0-91.136-40.79-91.136-91.136v-60.245c0-50.347 40.79-91.136 91.136-91.136h398.848c50.347 0 91.136 40.789 91.136 91.136v60.245c0 50.347-40.79 91.136-91.136 91.136"/><path fill="#fff" d="M161.621 287.573h90.112c15.019 0 26.624 3.755 34.646 11.094 8.021 7.509 12.117 16.725 12.117 27.648 0 9.216-2.901 17.066-8.533 23.722-3.755 4.438-9.387 7.851-16.726 10.411 11.264 2.73 19.456 7.339 24.747 13.824s7.85 14.848 7.85 24.747c0 8.021-1.877 15.36-5.631 21.845s-8.875 11.605-15.36 15.36c-4.096 2.39-10.07 4.096-18.262 5.12-10.752 1.365-18.09 2.048-21.504 2.048h-83.456zm48.47 61.099h20.992c7.509 0 12.8-1.365 15.701-3.925s4.437-6.315 4.437-11.264c0-4.608-1.536-8.022-4.437-10.582s-8.021-3.754-15.36-3.754h-21.163zm0 61.099h24.576c8.362 0 14.165-1.536 17.578-4.438q5.12-4.351 5.12-11.776c0-4.608-1.706-8.362-5.12-11.093s-9.216-4.267-17.749-4.267h-24.405zm122.538-122.198h48.299v155.819h-48.299zm83.115 0h44.885l58.71 86.187v-86.187h45.397v155.819h-45.397l-58.368-85.504v85.504h-45.227z"/><path fill="#4191fb" d="M321.365 566.613c12.288 0 21.846 3.926 28.843 11.776 8.192 9.216 12.459 24.576 12.459 45.91s-4.096 36.693-12.459 46.08c-6.827 7.68-16.384 11.605-28.672 11.605s-22.357-4.267-29.867-12.63-11.264-23.551-11.264-45.226c0-21.333 4.096-36.523 12.459-45.91 6.656-7.85 16.213-11.605 28.501-11.605m0 17.92c-2.901 0-5.632.854-7.85 2.56-2.39 1.707-4.096 4.608-5.291 9.046-1.707 5.632-2.56 15.018-2.56 28.33s.683 22.358 2.219 27.307c1.536 4.95 3.413 8.192 5.632 9.899s4.949 2.389 7.85 2.389 5.632-.853 7.851-2.56c2.39-1.707 4.096-4.608 5.29-9.045 1.707-5.462 2.56-15.019 2.56-28.16 0-13.312-.682-22.358-2.218-27.307-1.536-4.95-3.413-8.192-5.632-9.899s-4.95-2.56-7.85-2.56m119.808 95.403h-24.405v-81.579c-8.875 7.339-19.285 12.8-31.403 16.384v-19.626c6.315-1.878 13.312-5.291 20.651-10.582 7.51-5.12 12.63-11.264 15.36-18.09h19.797zm77.483-113.323c12.288 0 21.845 3.926 28.843 11.776 8.192 9.216 12.458 24.576 12.458 45.91s-4.096 36.693-12.458 46.08c-6.827 7.68-16.384 11.605-28.672 11.605s-22.358-4.267-29.867-12.63-11.264-23.551-11.264-45.226c0-21.333 4.096-36.523 12.459-45.91 6.656-7.85 16.213-11.605 28.501-11.605m0 17.92c-2.901 0-5.632.854-7.85 2.56-2.39 1.707-4.097 4.608-5.291 9.046-1.707 5.632-2.56 15.018-2.56 28.33s.682 22.358 2.218 27.307 3.414 8.192 5.632 9.899 4.95 2.389 7.851 2.389 5.632-.853 7.85-2.56c2.39-1.707 4.097-4.608 5.291-9.045 1.707-5.462 2.56-15.019 2.56-28.16 0-13.312-.682-22.358-2.218-27.307s-3.414-8.192-5.632-9.899c-2.39-1.706-4.95-2.56-7.851-2.56m119.637 95.403h-24.405v-81.579c-8.875 7.339-19.285 12.8-31.403 16.384v-19.626c6.315-1.878 13.312-5.291 20.651-10.582 7.51-5.12 12.63-11.264 15.36-18.09h19.797zm88.918 0h-24.406v-81.579c-8.874 7.339-19.285 12.8-31.402 16.384v-19.626c6.314-1.878 13.312-5.291 20.65-10.582 7.51-5.12 12.63-11.264 15.36-18.09h19.798zm77.482-113.323c12.288 0 21.846 3.926 28.843 11.776 8.192 9.216 12.459 24.576 12.459 45.91s-4.096 36.693-12.459 46.08c-6.827 7.68-16.384 11.605-28.672 11.605s-22.357-4.267-29.867-12.63-11.264-23.551-11.264-45.226c0-21.333 4.096-36.523 12.459-45.91 6.656-7.85 16.213-11.605 28.501-11.605m0 17.92c-2.901 0-5.632.854-7.85 2.56-2.39 1.707-4.096 4.608-5.291 9.046-1.707 5.632-2.56 15.018-2.56 28.33s.683 22.358 2.219 27.307 3.413 8.192 5.632 9.899 4.949 2.389 7.85 2.389 5.632-.853 7.851-2.56c2.39-1.707 4.096-4.608 5.29-9.045 1.707-5.462 2.56-15.019 2.56-28.16 0-13.312-.682-22.358-2.218-27.307s-3.413-8.192-5.632-9.899c-2.39-1.706-4.95-2.56-7.85-2.56M342.528 843.093h-24.405v-81.578c-8.875 7.338-19.286 12.8-31.403 16.384v-19.627c6.315-1.877 13.312-5.29 20.65-10.581 7.51-5.12 12.63-11.264 15.36-18.091h19.798zm88.747 0h-24.406v-81.578c-8.874 7.338-19.285 12.8-31.402 16.384v-19.627c6.314-1.877 13.312-5.29 20.65-10.581 7.51-5.12 12.63-11.264 15.36-18.091h19.798zm77.482-113.322c12.288 0 21.846 3.925 28.843 11.776 8.192 9.216 12.459 24.576 12.459 45.909s-4.096 36.693-12.459 46.08c-6.827 7.68-16.384 11.605-28.672 11.605s-22.357-4.266-29.867-12.629-11.264-23.552-11.264-45.227c0-21.333 4.096-36.522 12.459-45.909 6.656-7.85 16.213-11.605 28.501-11.605m0 17.92c-2.901 0-5.632.853-7.85 2.56-2.39 1.706-4.096 4.608-5.291 9.045-1.707 5.632-2.56 15.019-2.56 28.33 0 13.313.683 22.358 2.219 27.307s3.413 8.192 5.632 9.899 4.949 2.39 7.85 2.39 5.632-.854 7.851-2.56c2.39-1.707 4.096-4.609 5.29-9.046 1.707-5.461 2.56-15.019 2.56-28.16 0-13.312-.682-22.357-2.218-27.307s-3.413-8.192-5.632-9.898c-2.219-1.707-4.779-2.56-7.85-2.56m119.808 95.402H604.16v-81.578c-8.875 7.338-19.285 12.8-31.403 16.384v-19.627c6.315-1.877 13.312-5.29 20.651-10.581 7.51-5.12 12.63-11.264 15.36-18.091h19.797zm77.483-113.322c12.288 0 21.845 3.925 28.843 11.776 8.192 9.216 12.458 24.576 12.458 45.909s-4.096 36.693-12.458 46.08c-6.827 7.68-16.384 11.605-28.672 11.605s-22.358-4.266-29.867-12.629-11.264-23.552-11.264-45.227c0-21.333 4.096-36.522 12.459-45.909 6.656-7.85 16.213-11.605 28.501-11.605m0 17.92c-2.901 0-5.632.853-7.85 2.56-2.39 1.706-4.097 4.608-5.291 9.045-1.707 5.632-2.56 15.019-2.56 28.33 0 13.313.682 22.358 2.218 27.307s3.414 8.192 5.632 9.899 4.95 2.39 7.851 2.39 5.632-.854 7.85-2.56c2.39-1.707 4.097-4.609 5.291-9.046 1.707-5.461 2.56-15.019 2.56-28.16 0-13.312-.682-22.357-2.218-27.307s-3.414-8.192-5.632-9.898c-2.219-1.707-4.95-2.56-7.851-2.56m119.808 95.402h-24.405v-81.578c-8.875 7.338-19.286 12.8-31.403 16.384v-19.627c6.315-1.877 13.312-5.29 20.65-10.581 7.51-5.12 12.63-11.264 15.36-18.091h19.798z"/></svg>