<svg width="832" height="652" version="1.1" xmlns="http://www.w3.org/2000/svg" desc="Created with imagetracer.js version 1.2.6" ><path fill="rgb(30,161,162)" stroke="rgb(30,161,162)" stroke-width="1" opacity="0.7411764705882353" d="M 277.5 47 L 313 47.5 L 277.5 48 L 277.5 47 Z " /><path fill="rgb(30,161,162)" stroke="rgb(30,161,162)" stroke-width="1" opacity="0.7411764705882353" d="M 254.5 48 L 269 48.5 L 254.5 49 L 254.5 48 Z " /><path fill="rgb(30,161,162)" stroke="rgb(30,161,162)" stroke-width="1" opacity="0.7411764705882353" d="M 321.5 48 L 336 48.5 L 321.5 49 L 321.5 48 Z " /><path fill="rgb(30,161,162)" stroke="rgb(30,161,162)" stroke-width="1" opacity="0.7411764705882353" d="M 240.5 49 L 250 49.5 L 240.5 50 L 240.5 49 Z " /><path fill="rgb(30,161,162)" stroke="rgb(30,161,162)" stroke-width="1" opacity="0.7411764705882353" d="M 340.5 49 L 350 49.5 L 340.5 50 L 340.5 49 Z " /><path fill="rgb(30,161,162)" stroke="rgb(30,161,162)" stroke-width="1" opacity="0.7411764705882353" d="M 228.5 50 L 237 50.5 L 228.5 51 L 228.5 50 Z " /><path fill="rgb(30,161,162)" stroke="rgb(30,161,162)" stroke-width="1" opacity="0.7411764705882353" d="M 353.5 50 L 361 50.5 L 353.5 51 L 353.5 50 Z " /><path fill="rgb(30,161,162)" stroke="rgb(30,161,162)" stroke-width="1" opacity="0.7411764705882353" d="M 219.5 51 L 226 51.5 L 219.5 52 L 219.5 51 Z " /><path fill="rgb(30,161,162)" stroke="rgb(30,161,162)" stroke-width="1" opacity="0.7411764705882353" d="M 364.5 51 L 371 51.5 L 364.5 52 L 364.5 51 Z " /><path fill="rgb(30,161,162)" stroke="rgb(30,161,162)" stroke-width="1" opacity="0.7411764705882353" d="M 211.5 52 L 217 52.5 L 211.5 53 L 211.5 52 Z " /><path fill="rgb(30,161,162)" stroke="rgb(30,161,162)" stroke-width="1" opacity="0.7411764705882353" d="M 373.5 52 L 379 52.5 L 373.5 53 L 373.5 52 Z " /><path fill="rgb(30,161,162)" stroke="rgb(30,161,162)" stroke-width="1" opacity="0.7411764705882353" d="M 203.5 53 L 209 53.5 L 203.5 54 L 203.5 53 Z " /><path fill="rgb(30,161,162)" stroke="rgb(30,161,162)" stroke-width="1" opacity="0.7411764705882353" d="M 381.5 53 L 387 53.5 L 381.5 54 L 381.5 53 Z " /><path fill="rgb(30,161,162)" stroke="rgb(30,161,162)" stroke-width="1" opacity="0.7411764705882353" d="M 196.5 54 L 201 54.5 L 196.5 55 L 196.5 54 Z " /><path fill="rgb(30,161,162)" stroke="rgb(30,161,162)" stroke-width="1" opacity="0.7411764705882353" d="M 389.5 54 L 394 54.5 L 389.5 55 L 389.5 54 Z " /><path fill="rgb(30,161,162)" stroke="rgb(30,161,162)" stroke-width="1" opacity="0.7411764705882353" d="M 189.5 55 L 194 55.5 L 189.5 56 L 189.5 55 Z " /><path fill="rgb(30,161,162)" stroke="rgb(30,161,162)" stroke-width="1" opacity="0.7411764705882353" d="M 396.5 55 L 401 55.5 L 396.5 56 L 396.5 55 Z " /><path fill="rgb(30,161,162)" stroke="rgb(30,161,162)" stroke-width="1" opacity="0.7411764705882353" d="M 183.5 56 L 188 56.5 L 183.5 57 L 183.5 56 Z " /><path fill="rgb(30,161,162)" stroke="rgb(30,161,162)" stroke-width="1" opacity="0.7411764705882353" d="M 402.5 56 L 407 56.5 L 402.5 57 L 402.5 56 Z " /><path fill="rgb(30,161,162)" stroke="rgb(30,161,162)" stroke-width="1" opacity="0.7411764705882353" d="M 177.5 57 L 182 57.5 L 177.5 58 L 177.5 57 Z " /><path fill="rgb(30,161,162)" stroke="rgb(30,161,162)" stroke-width="1" opacity="0.7411764705882353" d="M 408.5 57 L 413 57.5 L 408.5 58 L 408.5 57 Z " /><path fill="rgb(30,161,162)" stroke="rgb(30,161,162)" stroke-width="1" opacity="0.7411764705882353" d="M 172.5 58 L 176 58.5 L 172.5 59 L 172.5 58 Z " /><path fill="rgb(30,161,162)" stroke="rgb(30,161,162)" stroke-width="1" opacity="0.7411764705882353" d="M 414.5 58 L 418 58.5 L 414.5 59 L 414.5 58 Z " /><path fill="rgb(30,161,162)" stroke="rgb(30,161,162)" stroke-width="1" opacity="0.7411764705882353" d="M 167.5 59 L 171 59.5 L 167.5 60 L 167.5 59 Z " /><path fill="rgb(30,161,162)" stroke="rgb(30,161,162)" stroke-width="1" opacity="0.7411764705882353" d="M 419.5 59 L 423 59.5 L 419.5 60 L 419.5 59 Z " /><path fill="rgb(30,161,162)" stroke="rgb(30,161,162)" stroke-width="1" opacity="0.7411764705882353" d="M 162.5 60 L 165 60.5 L 162.5 61 L 162.5 60 Z " /><path fill="rgb(30,161,162)" stroke="rgb(30,161,162)" stroke-width="1" opacity="0.7411764705882353" d="M 425.5 60 L 428 60.5 L 425.5 61 L 425.5 60 Z " /><path fill="rgb(30,161,162)" stroke="rgb(30,161,162)" stroke-width="1" opacity="0.7411764705882353" d="M 157.5 61 L 160 61.5 L 157.5 62 L 157.5 61 Z " /><path fill="rgb(30,161,162)" stroke="rgb(30,161,162)" stroke-width="1" opacity="0.7411764705882353" d="M 430.5 61 L 433 61.5 L 430.5 62 L 430.5 61 Z " /><path fill="rgb(30,161,162)" stroke="rgb(30,161,162)" stroke-width="1" opacity="0.7411764705882353" d="M 152.5 62 L 156 62.5 L 152.5 63 L 152.5 62 Z " /><path fill="rgb(30,161,162)" stroke="rgb(30,161,162)" stroke-width="1" opacity="0.7411764705882353" d="M 434.5 62 L 438 62.5 L 434.5 63 L 434.5 62 Z " /><path fill="rgb(30,161,162)" stroke="rgb(30,161,162)" stroke-width="1" opacity="0.7411764705882353" d="M 148.5 63 L 151 63.5 L 148.5 64 L 148.5 63 Z " /><path fill="rgb(30,161,162)" stroke="rgb(30,161,162)" stroke-width="1" opacity="0.7411764705882353" d="M 439.5 63 L 442 63.5 L 439.5 64 L 439.5 63 Z " /><path fill="rgb(30,161,162)" stroke="rgb(30,161,162)" stroke-width="1" opacity="0.7411764705882353" d="M 143.5 64 L 146 64.5 L 143.5 65 L 143.5 64 Z " /><path fill="rgb(30,161,162)" stroke="rgb(30,161,162)" stroke-width="1" opacity="0.7411764705882353" d="M 444.5 64 L 447 64.5 L 444.5 65 L 444.5 64 Z " /><path fill="rgb(30,161,162)" stroke="rgb(30,161,162)" stroke-width="1" opacity="0.7411764705882353" d="M 139.5 65 L 142 65.5 L 139.5 66 L 139.5 65 Z " /><path fill="rgb(30,161,162)" stroke="rgb(30,161,162)" stroke-width="1" opacity="0.7411764705882353" d="M 448.5 65 L 451 65.5 L 448.5 66 L 448.5 65 Z " /><path fill="rgb(30,161,162)" stroke="rgb(30,161,162)" stroke-width="1" opacity="0.7411764705882353" d="M 135.5 66 L 138 66.5 L 135.5 67 L 135.5 66 Z " /><path fill="rgb(30,161,162)" stroke="rgb(30,161,162)" stroke-width="1" opacity="0.7411764705882353" d="M 452.5 66 L 455 66.5 L 452.5 67 L 452.5 66 Z " /><path fill="rgb(30,161,162)" stroke="rgb(30,161,162)" stroke-width="1" opacity="0.7411764705882353" d="M 131.5 67 L 134 67.5 L 131.5 68 L 131.5 67 Z " /><path fill="rgb(30,161,162)" stroke="rgb(30,161,162)" stroke-width="1" opacity="0.7411764705882353" d="M 456.5 67 L 459 67.5 L 456.5 68 L 456.5 67 Z " /><path fill="rgb(30,161,162)" stroke="rgb(30,161,162)" stroke-width="1" opacity="0.7411764705882353" d="M 127.5 68 L 130 68.5 L 127.5 69 L 127.5 68 Z " /><path fill="rgb(30,161,162)" stroke="rgb(30,161,162)" stroke-width="1" opacity="0.7411764705882353" d="M 460.5 68 L 463 68.5 L 460.5 69 L 460.5 68 Z " /><path fill="rgb(30,161,162)" stroke="rgb(30,161,162)" stroke-width="1" opacity="0.7411764705882353" d="M 123.5 69 L 126 69.5 L 123.5 70 L 123.5 69 Z " /><path fill="rgb(30,161,162)" stroke="rgb(30,161,162)" stroke-width="1" opacity="0.7411764705882353" d="M 464.5 69 L 467 69.5 L 464.5 70 L 464.5 69 Z " /><path fill="rgb(30,161,162)" stroke="rgb(30,161,162)" stroke-width="1" opacity="0.7411764705882353" d="M 119.5 70 L 122 70.5 L 119.5 71 L 119.5 70 Z " /><path fill="rgb(30,161,162)" stroke="rgb(30,161,162)" stroke-width="1" opacity="0.7411764705882353" d="M 468.5 70 L 471 70.5 L 468.5 71 L 468.5 70 Z " /><path fill="rgb(30,161,162)" stroke="rgb(30,161,162)" stroke-width="1" opacity="0.7411764705882353" d="M 112.5 72 L 115 72.5 L 112.5 73 L 112.5 72 Z " /><path fill="rgb(30,161,162)" stroke="rgb(30,161,162)" stroke-width="1" opacity="0.7411764705882353" d="M 475.5 72 L 478 72.5 L 475.5 73 L 475.5 72 Z " /><path fill="rgb(30,161,162)" stroke="rgb(30,161,162)" stroke-width="1" opacity="0.7411764705882353" d="M 105.5 74 L 108 74.5 L 105.5 75 L 105.5 74 Z " /><path fill="rgb(30,161,162)" stroke="rgb(30,161,162)" stroke-width="1" opacity="0.7411764705882353" d="M 482.5 74 L 485 74.5 L 482.5 75 L 482.5 74 Z " /><path fill="rgb(30,161,162)" stroke="rgb(30,161,162)" stroke-width="1" opacity="0.7411764705882353" d="M 98.5 76 L 101 76.5 L 95.5 78 L 95.5 77 L 98.5 76 Z " /><path fill="rgb(30,161,162)" stroke="rgb(30,161,162)" stroke-width="1" opacity="0.7411764705882353" d="M 489.5 76 L 495 77.5 L 492.5 78 L 489.5 77 L 489.5 76 Z " /><path fill="rgb(30,161,162)" stroke="rgb(30,161,162)" stroke-width="1" opacity="0.7411764705882353" d="M 72.5 85 L 74 88.5 L 72 87.5 L 72.5 85 Z " /><path fill="rgb(30,161,162)" stroke="rgb(30,161,162)" stroke-width="1" opacity="0.7411764705882353" d="M 517.5 85 L 524 87.5 L 522.5 88 L 517.5 86 L 517.5 85 Z " /><path fill="rgb(30,161,162)" stroke="rgb(30,161,162)" stroke-width="1" opacity="0.7411764705882353" d="M 528.5 89 L 532 90.5 L 530.5 91 L 528.5 89 Z " /><path fill="rgb(30,161,162)" stroke="rgb(30,161,162)" stroke-width="1" opacity="0.7411764705882353" d="M 74.5 90 L 81 100.5 L 79 99.5 L 74.5 90 Z " /><path fill="rgb(30,161,162)" stroke="rgb(30,161,162)" stroke-width="1" opacity="0.7411764705882353" d="M 536.5 92 L 540 93.5 L 538.5 94 L 536.5 92 Z " /><path fill="rgb(30,161,162)" stroke="rgb(30,161,162)" stroke-width="1" opacity="0.7411764705882353" d="M 541.5 94 L 545 95.5 L 543.5 96 L 541.5 94 Z " /><path fill="rgb(30,161,162)" stroke="rgb(30,161,162)" stroke-width="1" opacity="0.7411764705882353" d="M 546.5 96 L 550 97.5 L 548.5 98 L 546.5 96 Z " /><path fill="rgb(30,161,162)" stroke="rgb(30,161,162)" stroke-width="1" opacity="0.7411764705882353" d="M 553.5 99 L 557 100.5 L 555.5 101 L 553.5 99 Z " /><path fill="rgb(30,161,162)" stroke="rgb(30,161,162)" stroke-width="1" opacity="0.7411764705882353" d="M 122.5 101 L 126 102.5 L 128 106.5 L 126 105.5 L 125 102 Q 121.7 102.7 122.5 101 Z " /><path fill="rgb(30,161,162)" stroke="rgb(30,161,162)" stroke-width="1" opacity="0.7411764705882353" d="M 558.5 101 L 564 103.5 L 562.5 104 L 558.5 102 L 558.5 101 Z " /><path fill="rgb(30,161,162)" stroke="rgb(30,161,162)" stroke-width="1" opacity="0.7411764705882353" d="M 81.5 102 L 85 107.5 L 83 106.5 L 81.5 102 Z " /><path fill="rgb(30,161,162)" stroke="rgb(30,161,162)" stroke-width="1" opacity="0.7411764705882353" d="M 118.5 102 L 121 102.5 L 112.5 105 L 112.5 104 L 118.5 102 Z " /><path fill="rgb(30,161,162)" stroke="rgb(30,161,162)" stroke-width="1" opacity="0.7411764705882353" d="M 567.5 105 L 575 108.5 L 573.5 109 L 567.5 106 L 567.5 105 Z " /><path fill="rgb(30,161,162)" stroke="rgb(30,161,162)" stroke-width="1" opacity="0.7411764705882353" d="M 103.5 107 L 105 107.5 L 95.5 111 L 95.5 110 L 103.5 107 Z " /><path fill="rgb(30,161,162)" stroke="rgb(30,161,162)" stroke-width="1" opacity="0.7411764705882353" d="M 69.5 108 L 73 109.5 L 90 139.5 L 86.5 142 L 66.5 149 L 49 120.5 L 48 116 L 69.5 108 Z M 70 109 L 49 118 L 67 148 L 89 140 L 73 112 L 70 109 Z " /><path fill="rgb(30,161,162)" stroke="rgb(30,161,162)" stroke-width="1" opacity="0.7411764705882353" d="M 128.5 108 L 132 113.5 L 130 112.5 L 128.5 108 Z " /><path fill="rgb(30,161,162)" stroke="rgb(30,161,162)" stroke-width="1" opacity="0.7411764705882353" d="M 85.5 109 L 88 113.5 L 87 113.5 L 85.5 109 Z " /><path fill="rgb(30,161,162)" stroke="rgb(30,161,162)" stroke-width="1" opacity="0.7411764705882353" d="M 578.5 110 L 609 125.5 L 607.5 125 L 578.5 111 L 578.5 110 Z " /><path fill="rgb(30,161,162)" stroke="rgb(30,161,162)" stroke-width="1" opacity="0.7411764705882353" d="M 132.5 115 L 139 125.5 L 137 124.5 L 132.5 115 Z " /><path fill="rgb(30,161,162)" stroke="rgb(30,161,162)" stroke-width="1" opacity="0.7411764705882353" d="M 117.5 116 Q 119.8 115.3 119 117.5 L 137 149 L 132.5 150 L 132.5 149 L 136 147.5 L 117.5 117 L 109.5 120 L 109.5 119 L 117.5 116 Z " /><path fill="rgb(30,161,162)" stroke="rgb(30,161,162)" stroke-width="1" opacity="0.7411764705882353" d="M 106.5 120 L 108 120.5 L 98.5 124 L 98.5 123 L 106.5 120 Z " /><path fill="rgb(30,161,162)" stroke="rgb(30,161,162)" stroke-width="1" opacity="0.7411764705882353" d="M 95.5 124 L 97 124.5 L 95 125.5 L 113.5 156 L 119.5 154 L 119.5 155 L 112 157 L 94 125.5 L 95.5 124 Z " /><path fill="rgb(30,161,162)" stroke="rgb(30,161,162)" stroke-width="1" opacity="0.7411764705882353" d="M 139.5 127 L 143 132.5 L 141 131.5 L 139.5 127 Z " /><path fill="rgb(30,161,162)" stroke="rgb(30,161,162)" stroke-width="1" opacity="0.7411764705882353" d="M 612.5 127 L 620 131.5 L 618.5 131 Q 612.9 130.2 612.5 127 Z " /><path fill="rgb(30,161,162)" stroke="rgb(30,161,162)" stroke-width="1" opacity="0.7411764705882353" d="M 621.5 132 L 634 139.5 L 632.5 139 L 622.5 134 L 621.5 132 Z " /><path fill="rgb(30,161,162)" stroke="rgb(30,161,162)" stroke-width="1" opacity="0.7411764705882353" d="M 143.5 134 L 150 144.5 L 148 143.5 L 143.5 134 Z " /><path fill="rgb(30,161,162)" stroke="rgb(30,161,162)" stroke-width="1" opacity="0.7411764705882353" d="M 635.5 140 L 639 142.5 L 637.5 142 L 635.5 140 Z " /><path fill="rgb(30,161,162)" stroke="rgb(30,161,162)" stroke-width="1" opacity="0.7411764705882353" d="M 43.5 143 L 45 143.5 L 38.5 146 L 38.5 145 L 43.5 143 Z " /><path fill="rgb(30,161,162)" stroke="rgb(30,161,162)" stroke-width="1" opacity="0.7411764705882353" d="M 49.5 143 L 56 153.5 L 54 152.5 L 49.5 143 Z " /><path fill="rgb(30,161,162)" stroke="rgb(30,161,162)" stroke-width="1" opacity="0.7411764705882353" d="M 640.5 143 L 644 145.5 L 642.5 145 L 640.5 143 Z " /><path fill="rgb(30,161,162)" stroke="rgb(30,161,162)" stroke-width="1" opacity="0.7411764705882353" d="M 150.5 146 L 154 151.5 L 152 150.5 L 150.5 146 Z " /><path fill="rgb(30,161,162)" stroke="rgb(30,161,162)" stroke-width="1" opacity="0.7411764705882353" d="M 645.5 146 L 652 150.5 L 650.5 150 Q 645.9 148.8 645.5 146 Z " /><path fill="rgb(30,161,162)" stroke="rgb(30,161,162)" stroke-width="1" opacity="0.7411764705882353" d="M 32.5 147 L 34 147.5 L 27.5 150 L 27.5 149 L 32.5 147 Z " /><path fill="rgb(30,161,162)" stroke="rgb(30,161,162)" stroke-width="1" opacity="0.7411764705882353" d="M 363.5 149 L 420 149.5 L 363.5 150 L 363.5 149 Z " /><path fill="rgb(30,161,162)" stroke="rgb(30,161,162)" stroke-width="1" opacity="0.7411764705882353" d="M 25.5 150 L 29 155.5 L 27 154.5 L 25.5 150 Z " /><path fill="rgb(30,161,162)" stroke="rgb(30,161,162)" stroke-width="1" opacity="0.7411764705882353" d="M 93.5 150 Q 97.5 149.5 98 152.5 L 114 181.5 L 97.5 188 L 97.5 187 L 113 182 L 96 151 L 85.5 154 L 85.5 153 L 93.5 150 Z " /><path fill="rgb(30,161,162)" stroke="rgb(30,161,162)" stroke-width="1" opacity="0.7411764705882353" d="M 129.5 150 L 131 150.5 L 121.5 154 L 121.5 153 L 129.5 150 Z " /><path fill="rgb(30,161,162)" stroke="rgb(30,161,162)" stroke-width="1" opacity="0.7411764705882353" d="M 345.5 150 L 358 150.5 L 345.5 151 L 345.5 150 Z " /><path fill="rgb(30,161,162)" stroke="rgb(30,161,162)" stroke-width="1" opacity="0.7411764705882353" d="M 426.5 150 L 438 150.5 L 426.5 151 L 426.5 150 Z " /><path fill="rgb(30,161,162)" stroke="rgb(30,161,162)" stroke-width="1" opacity="0.7411764705882353" d="M 333.5 151 L 342 151.5 L 333.5 152 L 333.5 151 Z " /><path fill="rgb(30,161,162)" stroke="rgb(30,161,162)" stroke-width="1" opacity="0.7411764705882353" d="M 442.5 151 L 451 151.5 L 442.5 152 L 442.5 151 Z " /><path fill="rgb(30,161,162)" stroke="rgb(30,161,162)" stroke-width="1" opacity="0.7411764705882353" d="M 653.5 151 L 676 166.5 L 673.5 165 L 654.5 153 L 653.5 151 Z " /><path fill="rgb(30,161,162)" stroke="rgb(30,161,162)" stroke-width="1" opacity="0.7411764705882353" d="M 322.5 152 L 330 152.5 L 322.5 153 L 322.5 152 Z " /><path fill="rgb(30,161,162)" stroke="rgb(30,161,162)" stroke-width="1" opacity="0.7411764705882353" d="M 454.5 152 L 461 152.5 L 454.5 153 L 454.5 152 Z " /><path fill="rgb(30,161,162)" stroke="rgb(30,161,162)" stroke-width="1" opacity="0.7411764705882353" d="M 313.5 153 L 320 153.5 L 313.5 154 L 313.5 153 Z " /><path fill="rgb(30,161,162)" stroke="rgb(30,161,162)" stroke-width="1" opacity="0.7411764705882353" d="M 464.5 153 L 470 153.5 L 464.5 154 L 464.5 153 Z " /><path fill="rgb(30,161,162)" stroke="rgb(30,161,162)" stroke-width="1" opacity="0.7411764705882353" d="M 82.5 154 L 84 154.5 L 74.5 158 L 74.5 157 L 82.5 154 Z " /><path fill="rgb(30,161,162)" stroke="rgb(30,161,162)" stroke-width="1" opacity="0.7411764705882353" d="M 305.5 154 L 311 154.5 L 305.5 155 L 305.5 154 Z " /><path fill="rgb(30,161,162)" stroke="rgb(30,161,162)" stroke-width="1" opacity="0.7411764705882353" d="M 472.5 154 L 478 154.5 L 472.5 155 L 472.5 154 Z " /><path fill="rgb(30,161,162)" stroke="rgb(30,161,162)" stroke-width="1" opacity="0.7411764705882353" d="M 56.5 155 L 60 160.5 L 58 159.5 L 56.5 155 Z " /><path fill="rgb(30,161,162)" stroke="rgb(30,161,162)" stroke-width="1" opacity="0.7411764705882353" d="M 298.5 155 L 303 155.5 L 298.5 156 L 298.5 155 Z " /><path fill="rgb(30,161,162)" stroke="rgb(30,161,162)" stroke-width="1" opacity="0.7411764705882353" d="M 480.5 155 L 486 155.5 L 480.5 156 L 480.5 155 Z " /><path fill="rgb(30,161,162)" stroke="rgb(30,161,162)" stroke-width="1" opacity="0.7411764705882353" d="M 291.5 156 L 296 156.5 L 291.5 157 L 291.5 156 Z " /><path fill="rgb(30,161,162)" stroke="rgb(30,161,162)" stroke-width="1" opacity="0.7411764705882353" d="M 488.5 156 L 493 156.5 L 488.5 157 L 488.5 156 Z " /><path fill="rgb(30,161,162)" stroke="rgb(30,161,162)" stroke-width="1" opacity="0.7411764705882353" d="M 29.5 157 L 36 167.5 L 34 166.5 L 29.5 157 Z " /><path fill="rgb(30,161,162)" stroke="rgb(30,161,162)" stroke-width="1" opacity="0.7411764705882353" d="M 285.5 157 L 290 157.5 L 285.5 158 L 285.5 157 Z " /><path fill="rgb(30,161,162)" stroke="rgb(30,161,162)" stroke-width="1" opacity="0.7411764705882353" d="M 494.5 157 L 499 157.5 L 494.5 158 L 494.5 157 Z " /><path fill="rgb(30,161,162)" stroke="rgb(30,161,162)" stroke-width="1" opacity="0.7411764705882353" d="M 72.5 158 L 90.5 190 L 95.5 188 L 95.5 189 L 90.5 191 L 75 165.5 L 72.5 158 Z " /><path fill="rgb(30,161,162)" stroke="rgb(30,161,162)" stroke-width="1" opacity="0.7411764705882353" d="M 279.5 158 L 283 158.5 L 279.5 159 L 279.5 158 Z " /><path fill="rgb(30,161,162)" stroke="rgb(30,161,162)" stroke-width="1" opacity="0.7411764705882353" d="M 500.5 158 L 505 158.5 L 500.5 159 L 500.5 158 Z " /><path fill="rgb(30,161,162)" stroke="rgb(30,161,162)" stroke-width="1" opacity="0.7411764705882353" d="M 139.5 159 L 141 159.5 L 137.5 161 L 137.5 160 L 139.5 159 Z " /><path fill="rgb(30,161,162)" stroke="rgb(30,161,162)" stroke-width="1" opacity="0.7411764705882353" d="M 273.5 159 L 277 159.5 L 273.5 160 L 273.5 159 Z " /><path fill="rgb(30,161,162)" stroke="rgb(30,161,162)" stroke-width="1" opacity="0.7411764705882353" d="M 506.5 159 L 511 159.5 L 506.5 160 L 506.5 159 Z " /><path fill="rgb(30,161,162)" stroke="rgb(30,161,162)" stroke-width="1" opacity="0.7411764705882353" d="M 268.5 160 L 272 160.5 L 268.5 161 L 268.5 160 Z " /><path fill="rgb(30,161,162)" stroke="rgb(30,161,162)" stroke-width="1" opacity="0.7411764705882353" d="M 512.5 160 L 516 160.5 L 512.5 161 L 512.5 160 Z " /><path fill="rgb(30,161,162)" stroke="rgb(30,161,162)" stroke-width="1" opacity="0.7411764705882353" d="M 262.5 161 L 266 161.5 L 262.5 162 L 262.5 161 Z " /><path fill="rgb(30,161,162)" stroke="rgb(30,161,162)" stroke-width="1" opacity="0.7411764705882353" d="M 517.5 161 L 521 161.5 L 517.5 162 L 517.5 161 Z " /><path fill="rgb(30,161,162)" stroke="rgb(30,161,162)" stroke-width="1" opacity="0.7411764705882353" d="M 60.5 162 L 67 174 L 63.5 175 L 63.5 174 L 66 172.5 L 60.5 162 Z " /><path fill="rgb(30,161,162)" stroke="rgb(30,161,162)" stroke-width="1" opacity="0.7411764705882353" d="M 131.5 162 L 133 162.5 L 129.5 164 L 129.5 163 L 131.5 162 Z " /><path fill="rgb(30,161,162)" stroke="rgb(30,161,162)" stroke-width="1" opacity="0.7411764705882353" d="M 257.5 162 L 261 162.5 L 257.5 163 L 257.5 162 Z " /><path fill="rgb(30,161,162)" stroke="rgb(30,161,162)" stroke-width="1" opacity="0.7411764705882353" d="M 523.5 162 L 526 162.5 L 523.5 163 L 523.5 162 Z " /><path fill="rgb(30,161,162)" stroke="rgb(30,161,162)" stroke-width="1" opacity="0.7411764705882353" d="M 253.5 163 L 256 163.5 L 253.5 164 L 253.5 163 Z " /><path fill="rgb(30,161,162)" stroke="rgb(30,161,162)" stroke-width="1" opacity="0.7411764705882353" d="M 527.5 163 L 531 163.5 L 527.5 164 L 527.5 163 Z " /><path fill="rgb(30,161,162)" stroke="rgb(30,161,162)" stroke-width="1" opacity="0.7411764705882353" d="M 248.5 164 L 252 164.5 L 248.5 165 L 248.5 164 Z " /><path fill="rgb(30,161,162)" stroke="rgb(30,161,162)" stroke-width="1" opacity="0.7411764705882353" d="M 532.5 164 L 536 164.5 L 532.5 165 L 532.5 164 Z " /><path fill="rgb(30,161,162)" stroke="rgb(30,161,162)" stroke-width="1" opacity="0.7411764705882353" d="M 123.5 165 L 125 165.5 L 121.5 167 L 121.5 166 L 123.5 165 Z " /><path fill="rgb(30,161,162)" stroke="rgb(30,161,162)" stroke-width="1" opacity="0.7411764705882353" d="M 244.5 165 L 247 165.5 L 244.5 166 L 244.5 165 Z " /><path fill="rgb(30,161,162)" stroke="rgb(30,161,162)" stroke-width="1" opacity="0.7411764705882353" d="M 537.5 165 L 540 165.5 L 537.5 166 L 537.5 165 Z " /><path fill="rgb(30,161,162)" stroke="rgb(30,161,162)" stroke-width="1" opacity="0.7411764705882353" d="M 239.5 166 L 243 166.5 L 239.5 167 L 239.5 166 Z " /><path fill="rgb(30,161,162)" stroke="rgb(30,161,162)" stroke-width="1" opacity="0.7411764705882353" d="M 541.5 166 L 544 166.5 L 541.5 167 L 541.5 166 Z " /><path fill="rgb(30,161,162)" stroke="rgb(30,161,162)" stroke-width="1" opacity="0.7411764705882353" d="M 119.5 167 L 121 169.5 L 119 168.5 L 119.5 167 Z " /><path fill="rgb(30,161,162)" stroke="rgb(30,161,162)" stroke-width="1" opacity="0.7411764705882353" d="M 235.5 167 L 238 167.5 L 235.5 168 L 235.5 167 Z " /><path fill="rgb(30,161,162)" stroke="rgb(30,161,162)" stroke-width="1" opacity="0.7411764705882353" d="M 546.5 167 L 549 167.5 L 546.5 168 L 546.5 167 Z " /><path fill="rgb(30,161,162)" stroke="rgb(30,161,162)" stroke-width="1" opacity="0.7411764705882353" d="M 677.5 167 L 690 176.5 L 687.5 175 L 679.5 170 L 677.5 167 Z " /><path fill="rgb(30,161,162)" stroke="rgb(30,161,162)" stroke-width="1" opacity="0.7411764705882353" d="M 231.5 168 L 234 168.5 L 231.5 169 L 231.5 168 Z " /><path fill="rgb(30,161,162)" stroke="rgb(30,161,162)" stroke-width="1" opacity="0.7411764705882353" d="M 550.5 168 L 553 168.5 L 550.5 169 L 550.5 168 Z " /><path fill="rgb(30,161,162)" stroke="rgb(30,161,162)" stroke-width="1" opacity="0.7411764705882353" d="M 36.5 169 L 43 179.5 L 41 178.5 L 36.5 169 Z " /><path fill="rgb(30,161,162)" stroke="rgb(30,161,162)" stroke-width="1" opacity="0.7411764705882353" d="M 227.5 169 L 230 169.5 L 227.5 170 L 227.5 169 Z " /><path fill="rgb(30,161,162)" stroke="rgb(30,161,162)" stroke-width="1" opacity="0.7411764705882353" d="M 554.5 169 L 557 169.5 L 554.5 170 L 554.5 169 Z " /><path fill="rgb(30,161,162)" stroke="rgb(30,161,162)" stroke-width="1" opacity="0.7411764705882353" d="M 223.5 170 L 226 170.5 L 223.5 171 L 223.5 170 Z " /><path fill="rgb(30,161,162)" stroke="rgb(30,161,162)" stroke-width="1" opacity="0.7411764705882353" d="M 558.5 170 L 561 170.5 L 558.5 171 L 558.5 170 Z " /><path fill="rgb(30,161,162)" stroke="rgb(30,161,162)" stroke-width="1" opacity="0.7411764705882353" d="M 121.5 171 L 125 176.5 L 123 175.5 L 121.5 171 Z " /><path fill="rgb(30,161,162)" stroke="rgb(30,161,162)" stroke-width="1" opacity="0.7411764705882353" d="M 219.5 171 L 222 171.5 L 219.5 172 L 219.5 171 Z " /><path fill="rgb(30,161,162)" stroke="rgb(30,161,162)" stroke-width="1" opacity="0.7411764705882353" d="M 565.5 172 L 568 172.5 L 565.5 173 L 565.5 172 Z " /><path fill="rgb(30,161,162)" stroke="rgb(30,161,162)" stroke-width="1" opacity="0.7411764705882353" d="M 212.5 173 L 215 173.5 L 212.5 174 L 212.5 173 Z " /><path fill="rgb(30,161,162)" stroke="rgb(30,161,162)" stroke-width="1" opacity="0.7411764705882353" d="M 569.5 173 L 572 173.5 L 569.5 174 L 569.5 173 Z " /><path fill="rgb(30,161,162)" stroke="rgb(30,161,162)" stroke-width="1" opacity="0.7411764705882353" d="M 205.5 175 L 208 175.5 L 205.5 176 L 205.5 175 Z " /><path fill="rgb(30,161,162)" stroke="rgb(30,161,162)" stroke-width="1" opacity="0.7411764705882353" d="M 576.5 175 L 579 175.5 L 576.5 176 L 576.5 175 Z " /><path fill="rgb(30,161,162)" stroke="rgb(30,161,162)" stroke-width="1" opacity="0.7411764705882353" d="M 54.5 177 L 56 177.5 L 52.5 179 L 52.5 178 L 54.5 177 Z " /><path fill="rgb(30,161,162)" stroke="rgb(30,161,162)" stroke-width="1" opacity="0.7411764705882353" d="M 198.5 177 L 201 177.5 L 198.5 178 L 198.5 177 Z " /><path fill="rgb(30,161,162)" stroke="rgb(30,161,162)" stroke-width="1" opacity="0.7411764705882353" d="M 691.5 177 L 693.5 180 L 691.5 177 Z " /><path fill="rgb(30,161,162)" stroke="rgb(30,161,162)" stroke-width="1" opacity="0.7411764705882353" d="M 125.5 178 L 132 188.5 L 130 187.5 L 125.5 178 Z " /><path fill="rgb(30,161,162)" stroke="rgb(30,161,162)" stroke-width="1" opacity="0.7411764705882353" d="M 586.5 178 L 592 179.5 L 589.5 180 L 586.5 179 L 586.5 178 Z " /><path fill="rgb(30,161,162)" stroke="rgb(30,161,162)" stroke-width="1" opacity="0.7411764705882353" d="M 695.5 180 L 697.5 183 L 695.5 180 Z " /><path fill="rgb(30,161,162)" stroke="rgb(30,161,162)" stroke-width="1" opacity="0.7411764705882353" d="M 699.5 183 L 729 207.5 L 723.5 203 L 702.5 187 L 699.5 183 Z " /><path fill="rgb(30,161,162)" stroke="rgb(30,161,162)" stroke-width="1" opacity="0.7411764705882353" d="M 614.5 187 L 621 189.5 L 619.5 190 L 614.5 188 L 614.5 187 Z " /><path fill="rgb(30,161,162)" stroke="rgb(30,161,162)" stroke-width="1" opacity="0.7411764705882353" d="M 162.5 189 L 164 189.5 L 160.5 191 L 160.5 190 L 162.5 189 Z " /><path fill="rgb(30,161,162)" stroke="rgb(30,161,162)" stroke-width="1" opacity="0.7411764705882353" d="M 132.5 190 L 136 195.5 L 134 194.5 L 132.5 190 Z " /><path fill="rgb(30,161,162)" stroke="rgb(30,161,162)" stroke-width="1" opacity="0.7411764705882353" d="M 625.5 191 L 629 192.5 L 627.5 193 L 625.5 191 Z " /><path fill="rgb(30,161,162)" stroke="rgb(30,161,162)" stroke-width="1" opacity="0.7411764705882353" d="M 154.5 192 L 156 192.5 L 152.5 194 L 152.5 193 L 154.5 192 Z " /><path fill="rgb(30,161,162)" stroke="rgb(30,161,162)" stroke-width="1" opacity="0.7411764705882353" d="M 149.5 194 L 151 194.5 L 147.5 196 L 147.5 195 L 149.5 194 Z " /><path fill="rgb(30,161,162)" stroke="rgb(30,161,162)" stroke-width="1" opacity="0.7411764705882353" d="M 633.5 194 L 637 195.5 L 635.5 196 L 633.5 194 Z " /><path fill="rgb(30,161,162)" stroke="rgb(30,161,162)" stroke-width="1" opacity="0.7411764705882353" d="M 144.5 196 L 146 196.5 L 142.5 198 L 142.5 197 L 144.5 196 Z " /><path fill="rgb(30,161,162)" stroke="rgb(30,161,162)" stroke-width="1" opacity="0.7411764705882353" d="M 638.5 196 L 642 197.5 L 640.5 198 L 638.5 196 Z " /><path fill="rgb(30,161,162)" stroke="rgb(30,161,162)" stroke-width="1" opacity="0.7411764705882353" d="M 136.5 197 Q 138 200.5 139.5 198 L 141 198.5 L 137 200 L 136.5 197 Z " /><path fill="rgb(30,161,162)" stroke="rgb(30,161,162)" stroke-width="1" opacity="0.7411764705882353" d="M 643.5 198 L 647 199.5 L 645.5 200 L 643.5 198 Z " /><path fill="rgb(30,161,162)" stroke="rgb(30,161,162)" stroke-width="1" opacity="0.7411764705882353" d="M 650.5 201 L 654 202.5 L 652.5 203 L 650.5 201 Z " /><path fill="rgb(30,161,162)" stroke="rgb(30,161,162)" stroke-width="1" opacity="0.7411764705882353" d="M 655.5 203 L 661 205.5 L 659.5 206 L 655.5 204 L 655.5 203 Z " /><path fill="rgb(30,161,162)" stroke="rgb(30,161,162)" stroke-width="1" opacity="0.7411764705882353" d="M 664.5 207 L 672 210.5 L 670.5 211 L 664.5 208 L 664.5 207 Z " /><path fill="rgb(30,161,162)" stroke="rgb(30,161,162)" stroke-width="1" opacity="0.7411764705882353" d="M 730.5 208 L 747 223.5 L 737.5 215 L 730.5 208 Z " /><path fill="rgb(30,161,162)" stroke="rgb(30,161,162)" stroke-width="1" opacity="0.7411764705882353" d="M 677.5 213 L 704 226.5 L 702.5 226 L 677.5 214 L 677.5 213 Z " /><path fill="rgb(30,161,162)" stroke="rgb(30,161,162)" stroke-width="1" opacity="0.7411764705882353" d="M 748.5 224 L 785.5 262 L 748.5 224 Z " /><path fill="rgb(30,161,162)" stroke="rgb(30,161,162)" stroke-width="1" opacity="0.7411764705882353" d="M 707.5 228 L 715 232.5 L 713.5 232 Q 707.9 231.2 707.5 228 Z " /><path fill="rgb(30,161,162)" stroke="rgb(30,161,162)" stroke-width="1" opacity="0.7411764705882353" d="M 716.5 233 L 724 237.5 L 722.5 237 Q 716.9 236.2 716.5 233 Z " /><path fill="rgb(30,161,162)" stroke="rgb(30,161,162)" stroke-width="1" opacity="0.7411764705882353" d="M 725.5 238 L 729 240.5 L 727.5 240 L 725.5 238 Z " /><path fill="rgb(30,161,162)" stroke="rgb(30,161,162)" stroke-width="1" opacity="0.7411764705882353" d="M 730.5 241 L 744 249.5 L 742.5 249 L 731.5 243 L 730.5 241 Z " /><path fill="rgb(30,161,162)" stroke="rgb(30,161,162)" stroke-width="1" opacity="0.7411764705882353" d="M 745.5 250 L 758 258.5 L 756.5 258 L 746.5 252 L 745.5 250 Z " /><path fill="rgb(30,161,162)" stroke="rgb(30,161,162)" stroke-width="1" opacity="0.7411764705882353" d="M 759.5 259 L 760.5 261 L 759.5 259 Z " /><path fill="rgb(30,161,162)" stroke="rgb(30,161,162)" stroke-width="1" opacity="0.7411764705882353" d="M 762.5 261 L 763.5 263 L 762.5 261 Z " /><path fill="rgb(30,161,162)" stroke="rgb(30,161,162)" stroke-width="1" opacity="0.7411764705882353" d="M 765.5 263 L 777 271.5 L 774.5 270 Q 767.4 267.7 765.5 263 Z " /><path fill="rgb(30,161,162)" stroke="rgb(30,161,162)" stroke-width="1" opacity="0.7411764705882353" d="M 786.5 263 L 802 279.5 L 795 273.5 L 786.5 263 Z " /><path fill="rgb(30,161,162)" stroke="rgb(30,161,162)" stroke-width="1" opacity="0.7411764705882353" d="M 91.5 272 L 323 272.5 L 91.5 273 L 91.5 272 Z " /><path fill="rgb(30,161,162)" stroke="rgb(30,161,162)" stroke-width="1" opacity="0.7411764705882353" d="M 439 272 L 753 272.5 L 440 273 L 439.5 336 L 439 272 Z " /><path fill="rgb(30,161,162)" stroke="rgb(30,161,162)" stroke-width="1" opacity="0.7411764705882353" d="M 778.5 272 L 788 279.5 L 785.5 278 Q 780 275.9 778.5 272 Z " /><path fill="rgb(30,161,162)" stroke="rgb(30,161,162)" stroke-width="1" opacity="0.7411764705882353" d="M 327 273 L 333 273 L 333 275 L 327 275 L 327 273 Z " /><path fill="rgb(30,161,162)" stroke="rgb(30,161,162)" stroke-width="1" opacity="0.7411764705882353" d="M 334.5 275 L 339 275.5 L 334.5 276 L 334.5 275 Z " /><path fill="rgb(30,161,162)" stroke="rgb(30,161,162)" stroke-width="1" opacity="0.7411764705882353" d="M 340 276 L 344 276 Q 342.8 279 346.5 278 L 346.5 279 L 340 278 L 340 276 Z " /><path fill="rgb(30,161,162)" stroke="rgb(30,161,162)" stroke-width="1" opacity="0.7411764705882353" d="M 349 279 Q 352 278 351 281 L 353.5 281 L 360 283 Q 358.8 286 362.5 285 L 364 287.5 L 363 287.5 Q 363.8 284.9 360.5 286 L 357 285 Q 358.3 282 354.5 283 L 349 281 L 349 279 Z " /><path fill="rgb(30,161,162)" stroke="rgb(30,161,162)" stroke-width="1" opacity="0.7411764705882353" d="M 789.5 280 L 791.5 283 L 789.5 280 Z " /><path fill="rgb(30,161,162)" stroke="rgb(30,161,162)" stroke-width="1" opacity="0.7411764705882353" d="M 802.5 281 L 824 307.5 L 822.5 307 L 811 297.5 L 815.5 301 L 819.5 304 L 820 302.5 L 802.5 281 Z " /><path fill="rgb(30,161,162)" stroke="rgb(30,161,162)" stroke-width="1" opacity="0.7411764705882353" d="M 793.5 283 L 795.5 286 L 793.5 283 Z " /><path fill="rgb(30,161,162)" stroke="rgb(30,161,162)" stroke-width="1" opacity="0.7411764705882353" d="M 797.5 286 L 805 292.5 L 801.5 290 L 797.5 286 Z " /><path fill="rgb(30,161,162)" stroke="rgb(30,161,162)" stroke-width="1" opacity="0.7411764705882353" d="M 366.5 288 L 369 289 Q 367.9 291.7 370.5 291 L 374 293.5 Q 373.3 295.8 375.5 295 L 379 296 L 381 301 L 384 302.5 L 382.5 302 L 380 300.5 L 378.5 298 L 376 298 Q 377.1 295.3 374.5 296 L 373 293 L 367 291 L 366.5 288 Z " /><path fill="rgb(30,161,162)" stroke="rgb(30,161,162)" stroke-width="1" opacity="0.7411764705882353" d="M 806.5 293 L 809.5 297 L 806.5 293 Z " /><path fill="rgb(30,161,162)" stroke="rgb(30,161,162)" stroke-width="1" opacity="0.7411764705882353" d="M 384.5 305 L 387 306.5 Q 386.3 308.8 388.5 308 L 391 313 Q 393.7 311.9 393 314.5 L 394 318 L 396 318.5 L 394.5 319 L 393 315 Q 390.3 316.1 391 313.5 L 389 309 L 386 307.5 Q 386.8 305.3 384.5 306 L 384.5 305 Z " /><path fill="rgb(30,161,162)" stroke="rgb(30,161,162)" stroke-width="1" opacity="0.7411764705882353" d="M 396.5 321 L 399 322 L 400 327.5 L 399 327.5 L 399 325 Q 396 326.3 397 322.5 L 396.5 321 Z " /><path fill="rgb(30,161,162)" stroke="rgb(30,161,162)" stroke-width="1" opacity="0.7411764705882353" d="M 401 332 Q 404.3 330.9 403 335 Q 399.7 336.1 401 332 Z " /><path fill="rgb(30,161,162)" stroke="rgb(30,161,162)" stroke-width="1" opacity="0.7411764705882353" d="M 154 336 L 156 336.5 L 156 399 L 313.5 399 L 314 401 L 156 401 Q 156.8 397.9 154 398.5 L 154 336 Z " /><path fill="rgb(30,161,162)" stroke="rgb(30,161,162)" stroke-width="1" opacity="0.7411764705882353" d="M 313 336 L 320.5 336 Q 319.5 339.2 325.5 338 L 329 339 L 330 341.5 L 328.5 341 L 326 341 L 325.5 339 L 321.5 339 L 320.5 338 L 313 338 L 313 336 Z " /><path fill="rgb(30,161,162)" stroke="rgb(30,161,162)" stroke-width="1" opacity="0.7411764705882353" d="M 403.5 336 L 404 338.5 L 403 338.5 L 403.5 336 Z " /><path fill="rgb(30,161,162)" stroke="rgb(30,161,162)" stroke-width="1" opacity="0.7411764705882353" d="M 566.5 336 L 567 589 L 630 589.5 L 566 590 L 566.5 336 Z " /><path fill="rgb(30,161,162)" stroke="rgb(30,161,162)" stroke-width="1" opacity="0.7411764705882353" d="M 404 341 Q 407 340 406 343 Q 403 344 404 341 Z " /><path fill="rgb(30,161,162)" stroke="rgb(30,161,162)" stroke-width="1" opacity="0.7411764705882353" d="M 331.5 342 L 334 343.5 Q 333.3 345.8 335.5 345 L 337 348 L 340 349.5 L 341 355 Q 344 353.8 343 357.5 L 344 361.5 L 343 361.5 L 343 358 Q 340 359.3 341 355.5 L 339 349 L 336 347.5 Q 336.8 345.3 334.5 346 L 333 343 L 331.5 342 Z " /><path fill="rgb(30,161,162)" stroke="rgb(30,161,162)" stroke-width="1" opacity="0.7411764705882353" d="M 406.5 345 L 407 350.5 L 406 350.5 L 406.5 345 Z " /><path fill="rgb(30,161,162)" stroke="rgb(30,161,162)" stroke-width="1" opacity="0.7411764705882353" d="M 407 353 L 409 353.5 L 409 365 L 407 364.5 L 407 353 Z " /><path fill="rgb(30,161,162)" stroke="rgb(30,161,162)" stroke-width="1" opacity="0.7411764705882353" d="M 344 365 L 346 365.5 L 346 372 L 344 371.5 L 344 365 Z " /><path fill="rgb(30,161,162)" stroke="rgb(30,161,162)" stroke-width="1" opacity="0.7411764705882353" d="M 407 371 L 409 371.5 L 409 383 L 407 382.5 L 407 371 Z " /><path fill="rgb(30,161,162)" stroke="rgb(30,161,162)" stroke-width="1" opacity="0.7411764705882353" d="M 343.5 373 L 344 377.5 L 343 377.5 L 343.5 373 Z " /><path fill="rgb(30,161,162)" stroke="rgb(30,161,162)" stroke-width="1" opacity="0.7411764705882353" d="M 341 379 Q 344.3 377.9 343 382 L 340.5 383 L 341 381.5 L 341 379 Z " /><path fill="rgb(30,161,162)" stroke="rgb(30,161,162)" stroke-width="1" opacity="0.7411764705882353" d="M 339.5 385 L 339 386.5 Q 339.8 388.8 337.5 388 L 336 391 L 331 393 Q 332.1 395.7 329.5 395 L 327.5 396 L 327.5 395 L 330.5 393 L 334 390.5 Q 333.3 388.3 335.5 389 L 337 386 L 339.5 385 Z " /><path fill="rgb(30,161,162)" stroke="rgb(30,161,162)" stroke-width="1" opacity="0.7411764705882353" d="M 406.5 385 L 407 390.5 L 406 390.5 L 406.5 385 Z " /><path fill="rgb(30,161,162)" stroke="rgb(30,161,162)" stroke-width="1" opacity="0.7411764705882353" d="M 404 392 Q 407.7 390.8 406 396 Q 402.3 397.2 404 392 Z " /><path fill="rgb(30,161,162)" stroke="rgb(30,161,162)" stroke-width="1" opacity="0.7411764705882353" d="M 323 396 Q 327.1 394.7 326 398 L 317.5 399 L 317.5 398 Q 324.4 400 323 396 Z " /><path fill="rgb(30,161,162)" stroke="rgb(30,161,162)" stroke-width="1" opacity="0.7411764705882353" d="M 403.5 398 L 404 400.5 L 403 403 Q 400 404 401 401 Q 404.1 402.1 403.5 398 Z " /><path fill="rgb(30,161,162)" stroke="rgb(30,161,162)" stroke-width="1" opacity="0.7411764705882353" d="M 400.5 405 L 401 407.5 L 399 413 Q 396 411.8 397 415.5 L 396 418 Q 393 419 394 416 Q 397 417.3 396 413.5 L 397 411 Q 400 412.3 399 408.5 L 400.5 405 Z " /><path fill="rgb(30,161,162)" stroke="rgb(30,161,162)" stroke-width="1" opacity="0.7411764705882353" d="M 393.5 419 L 394 420.5 L 391.5 422 L 391.5 421 Q 394 421.7 393.5 419 Z " /><path fill="rgb(30,161,162)" stroke="rgb(30,161,162)" stroke-width="1" opacity="0.7411764705882353" d="M 390.5 423 L 391 424.5 L 389 428 Q 386.3 426.9 387 429.5 L 386 432 L 383 433.5 Q 383.8 435.8 381.5 435 L 378.5 439 L 376 440.5 Q 376.8 443.1 373.5 442 L 371 443 L 369.5 446 Q 366.2 444.9 367 447.5 L 361 450 Q 362.1 452.7 359.5 452 L 356 453 Q 357.3 456 353.5 455 L 350.5 456 L 350.5 455 L 353 455 Q 351.8 452 355.5 453 L 359 452 Q 357.9 449.3 360.5 450 L 366 448 L 367.5 445 Q 370.8 446.1 370 443.5 L 373 442 Q 371.8 439 375.5 440 L 379 438 L 381 433 L 384 431.5 L 386 428.5 L 387 426 L 390 424.5 L 390.5 423 Z " /><path fill="rgb(30,161,162)" stroke="rgb(30,161,162)" stroke-width="1" opacity="0.7411764705882353" d="M 346 456 Q 350.1 454.7 349 458 L 341.5 459 L 341.5 458 Q 347.4 459.7 346 456 Z " /><path fill="rgb(30,161,162)" stroke="rgb(30,161,162)" stroke-width="1" opacity="0.7411764705882353" d="M 337.5 459 L 340 459.5 L 337.5 460 L 337.5 459 Z " /><path fill="rgb(30,161,162)" stroke="rgb(30,161,162)" stroke-width="1" opacity="0.7411764705882353" d="M 330 460 Q 335.2 458.3 334 462 Q 328.8 463.7 330 460 Z " /><path fill="rgb(30,161,162)" stroke="rgb(30,161,162)" stroke-width="1" opacity="0.7411764705882353" d="M 156.5 462 L 233.5 462 L 236 463 L 237 468 L 240 469.5 L 241.5 473 Q 243.8 472.3 243 474.5 L 244 478 L 249 480 L 251.5 486 Q 254.1 485.2 253 488.5 L 256 490 L 257 495 L 260 496.5 L 261 500 Q 263.7 498.9 263 501.5 L 266 503 L 267 508 L 270 509.5 L 271.5 513 Q 273.8 512.3 273 514.5 L 274 518 L 279 520 L 281.5 526 Q 284.1 525.2 283 528.5 L 286 530 L 287 535 L 290 536.5 L 291 540 Q 293.7 538.9 293 541.5 L 296 543 L 297 548 L 300 549.5 L 301.5 553 Q 303.8 552.3 303 554.5 L 304 558 L 309 560 L 311.5 566 Q 314.1 565.2 313 568.5 L 316 570 L 317 575 L 320 576.5 L 321 580 Q 323.7 578.9 323 581.5 L 326 583 L 327 588 L 329.5 589 L 406.5 589 L 406 587.5 L 406 585 Q 403.3 586.1 404 583.5 L 401 582 L 399 576 Q 396 577.3 397 573.5 L 394 572 L 393 568 Q 390.3 569.1 391 566.5 Q 388.3 565.4 389 562 Q 386.3 563.1 387 560.5 L 384 559 L 382.5 555 Q 380.3 555.8 381 553.5 L 378.5 549 L 376 547.5 L 376 545 Q 373.3 546.1 374 543.5 L 371 542 L 369 536 Q 366 537.3 367 533.5 L 364 532 L 363 528 Q 360.3 529.1 361 526.5 Q 358.3 525.4 359 522 Q 356.3 523.1 357 520.5 L 354 519 L 352.5 515 Q 350.3 515.8 351 513.5 L 348.5 509 L 346 507.5 L 346 505 Q 343.3 506.1 344 503.5 L 341 502 L 339 496 Q 336 497.3 337 493.5 L 334 492 L 333 488 Q 330.3 489.1 331 486.5 Q 328.3 485.4 329 482 Q 326.3 483.1 327 480.5 L 324 479 L 322.5 475 Q 320.3 475.8 321 473.5 L 318.5 469 L 316 467.5 Q 317 463.8 314 465 L 314 462 L 327 462.5 L 316 463 L 317 468 L 321 470.5 L 321 473 Q 323.7 471.9 323 474.5 L 326 476 L 327.5 480 Q 329.8 479.3 329 481.5 L 331.5 486 Q 333.8 485.3 333 487.5 L 334 490 Q 336.7 488.9 336 491.5 L 339 493 L 341.5 499 Q 344.1 498.2 343 501.5 L 346 503 L 347 508 L 351 510.5 L 351 513 Q 353.7 511.9 353 514.5 L 356 516 L 357.5 520 Q 359.8 519.3 359 521.5 L 361.5 526 Q 363.8 525.3 363 527.5 L 364 530 Q 366.7 528.9 366 531.5 L 369 533 L 371.5 539 Q 374.1 538.2 373 541.5 L 376 543 L 377 548 L 381 550.5 L 381 553 Q 383.7 551.9 383 554.5 L 386 556 L 387.5 560 Q 389.8 559.3 389 561.5 L 391.5 566 Q 393.8 565.3 393 567.5 L 394 570 Q 396.7 568.9 396 571.5 L 399 573 L 401.5 579 Q 404.1 578.2 403 581.5 L 406 583 L 407 588 Q 410 587 409 590 L 329.5 590 L 326 587.5 Q 326.7 584.9 324 586 L 324 583.5 L 321 582 L 319 576 L 316 574.5 L 316 572 Q 313.3 573.1 314 570.5 L 311 569 L 309 563 Q 306 564.3 307 560.5 L 303 557.5 L 303 555 Q 300.3 556.1 301 553.5 Q 298.2 552.4 299 549 L 296 547.5 Q 296.7 544.9 294 546 L 294 543.5 L 291 542 L 289 536 L 286 534.5 L 286 532 Q 283.3 533.1 284 530.5 L 281 529 L 279 523 Q 276 524.3 277 520.5 L 273 517.5 L 273 515 Q 270.3 516.1 271 513.5 Q 268.3 512.4 269 509 L 266 507.5 Q 266.7 504.9 264 506 L 264 503.5 L 261 502 L 259 496 L 256 494.5 L 256 492 Q 253.3 493.1 254 490.5 L 251 489 L 249 483 Q 246 484.3 247 480.5 L 243 477.5 L 243 475 Q 240.3 476.1 241 473.5 Q 238.3 472.4 239 469 L 236 467.5 Q 236.7 464.9 234 466 L 233.5 463 L 156 463 L 156 590 L 91.5 590 L 91.5 589 L 154 589 L 154 463.5 L 155.5 463 L 156.5 462 Z " /><path fill="rgb(0,0,0)" stroke="rgb(0,0,0)" stroke-width="1" opacity="0" d="M 0 0 L 832 0 L 832 652 L 0 652 L 0 0 Z M 278 47 L 277 48 L 255 48 L 254 49 L 229 50 L 228 51 L 220 51 L 219 52 L 212 52 L 211 53 L 204 53 L 203 54 L 178 57 L 120 70 L 72 85 L 72 88 L 88 114 L 112 105 L 125 102 L 154 153 L 154 155 L 119 167 L 137 200 L 165 189 L 198 178 L 239 167 L 304 155 L 330 153 L 331 152 L 342 152 L 343 151 L 358 151 L 359 150 L 426 150 L 427 151 L 442 151 L 443 152 L 454 152 L 455 153 L 464 153 L 481 156 L 488 156 L 546 167 L 580 176 L 614 187 Q 734 231 823 307 L 824 308 Q 807 283 786 262 Q 694 160 560 101 Q 527 87 492 76 L 447 64 L 413 57 L 388 54 L 387 53 L 380 53 L 379 52 L 372 52 L 371 51 L 351 50 L 350 49 L 314 48 L 313 47 L 278 47 Z M 70 108 L 48 116 L 49 121 L 67 149 L 87 142 L 90 140 L 73 110 L 70 108 Z M 118 116 L 94 126 L 112 157 L 137 149 L 119 118 Q 120 115 118 116 Z M 47 142 L 25 151 L 43 182 L 67 174 L 51 145 Q 51 142 47 142 Z M 94 150 L 72 158 L 75 166 L 91 191 L 114 182 L 98 153 Q 97 149 94 150 Z M 91 272 L 91 590 L 156 590 L 156 463 L 234 463 L 234 466 Q 237 465 236 468 L 239 469 Q 238 472 241 474 Q 240 476 243 475 L 243 478 L 247 481 Q 246 484 249 483 L 251 489 L 254 491 Q 253 493 256 492 L 256 495 L 259 496 L 261 502 L 264 504 L 264 506 Q 267 505 266 508 L 269 509 Q 268 512 271 514 Q 270 516 273 515 L 273 518 L 277 521 Q 276 524 279 523 L 281 529 L 284 531 Q 283 533 286 532 L 286 535 L 289 536 L 291 542 L 294 544 L 294 546 Q 297 545 296 548 L 299 549 Q 298 552 301 554 Q 300 556 303 555 L 303 558 L 307 561 Q 306 564 309 563 L 311 569 L 314 571 Q 313 573 316 572 L 316 575 L 319 576 L 321 582 L 324 584 L 324 586 Q 327 585 326 588 L 330 590 L 409 590 Q 410 587 407 588 L 406 583 L 403 582 Q 404 578 402 579 L 399 573 L 396 572 Q 397 569 394 570 L 393 568 Q 394 565 392 566 L 389 562 Q 390 559 388 560 L 386 556 L 383 555 Q 384 552 381 553 L 381 551 L 377 548 L 376 543 L 373 542 Q 374 538 372 539 L 369 533 L 366 532 Q 367 529 364 530 L 363 528 Q 364 525 362 526 L 359 522 Q 360 519 358 520 L 356 516 L 353 515 Q 354 512 351 513 L 351 511 L 347 508 L 346 503 L 343 502 Q 344 498 342 499 L 339 493 L 336 492 Q 337 489 334 490 L 333 488 Q 334 485 332 486 L 329 482 Q 330 479 328 480 L 326 476 L 323 475 Q 324 472 321 473 L 321 471 L 317 468 L 316 463 L 327 463 L 328 462 Q 335 464 334 460 L 347 458 Q 350 459 349 456 L 354 455 Q 357 456 356 453 L 360 452 Q 362 453 361 450 L 367 448 Q 366 445 370 446 L 371 443 L 374 442 Q 377 443 376 441 L 379 439 L 382 435 Q 384 436 383 434 L 386 432 L 387 430 Q 386 427 389 428 L 391 422 L 394 421 Q 393 417 396 418 L 397 416 Q 396 412 399 413 L 401 408 Q 399 402 403 403 L 404 401 Q 402 395 406 396 L 407 391 L 407 384 L 409 383 L 409 354 L 407 353 L 407 346 L 406 345 Q 407 340 404 341 L 403 336 Q 404 331 401 332 L 399 322 L 396 321 Q 397 317 394 318 L 393 315 Q 394 312 391 313 L 390 310 L 387 308 L 386 305 Q 383 306 384 303 L 381 301 L 379 296 L 376 295 Q 373 296 374 294 L 371 291 Q 368 292 369 289 L 364 288 L 363 285 Q 359 286 360 283 L 354 281 Q 350 282 351 279 L 347 278 Q 343 279 344 276 L 339 275 Q 332 277 333 273 L 324 273 L 323 272 L 91 272 Z M 439 272 L 439 336 L 566 336 L 566 590 L 630 590 L 630 590 L 630 336 L 753 336 L 753 273 L 753 272 L 439 272 Z " /><path fill="rgb(0,0,0)" stroke="rgb(0,0,0)" stroke-width="1" opacity="0" d="M 156 336 L 312.5 336 Q 311.7 339.4 320.5 338 L 326 339 Q 324.8 342 328.5 341 L 333 343 L 334.5 346 Q 336.8 345.3 336 347.5 L 339 349 L 341 358 Q 344.3 356.7 343 361.5 L 344 362.5 L 344 372.5 L 343 379 Q 340 377.8 341 381.5 L 338.5 386 Q 336.3 385.3 337 387.5 L 334 389 L 332.5 392 L 329 393 Q 330.1 395.7 327.5 395 L 323 396 Q 324.4 400 317.5 398 L 316.5 399 L 156 399 L 156 336 Z " /><path fill="rgb(40,183,185)" stroke="rgb(40,183,185)" stroke-width="1" opacity="0.996078431372549" d="M 69.5 109 L 73 111.5 L 89 139.5 L 66.5 148 L 49 117.5 L 69.5 109 Z " /><path fill="rgb(40,183,185)" stroke="rgb(40,183,185)" stroke-width="1" opacity="0.996078431372549" d="M 87.5 111 L 88.5 113 L 87.5 111 Z " /><path fill="rgb(40,183,185)" stroke="rgb(40,183,185)" stroke-width="1" opacity="0.996078431372549" d="M 117.5 117 L 136 147.5 L 113.5 156 L 95 125.5 L 117.5 117 Z " /><path fill="rgb(40,183,185)" stroke="rgb(40,183,185)" stroke-width="1" opacity="0.996078431372549" d="M 48.5 142 L 66 172.5 L 62.5 175 L 43 181 L 26 150.5 L 48.5 142 Z " /><path fill="rgb(40,183,185)" stroke="rgb(40,183,185)" stroke-width="1" opacity="0.996078431372549" d="M 93.5 151 Q 96.8 149.9 96 152.5 L 113 182 L 90.5 190 L 73 158 L 93.5 151 Z " /><path fill="rgb(40,183,185)" stroke="rgb(40,183,185)" stroke-width="1" opacity="0.996078431372549" d="M 676.5 167 L 677.5 169 L 676.5 167 Z " /><path fill="rgb(40,183,185)" stroke="rgb(40,183,185)" stroke-width="1" opacity="0.996078431372549" d="M 690.5 177 L 691.5 179 L 690.5 177 Z " /><path fill="rgb(40,183,185)" stroke="rgb(40,183,185)" stroke-width="1" opacity="0.996078431372549" d="M 694.5 180 L 695.5 182 L 694.5 180 Z " /><path fill="rgb(40,183,185)" stroke="rgb(40,183,185)" stroke-width="1" opacity="0.996078431372549" d="M 698.5 183 L 699.5 185 L 698.5 183 Z " /><path fill="rgb(40,183,185)" stroke="rgb(40,183,185)" stroke-width="1" opacity="0.996078431372549" d="M 707.5 190 L 708.5 192 L 707.5 190 Z " /><path fill="rgb(40,183,185)" stroke="rgb(40,183,185)" stroke-width="1" opacity="0.996078431372549" d="M 712.5 194 L 713.5 196 L 712.5 194 Z " /><path fill="rgb(40,183,185)" stroke="rgb(40,183,185)" stroke-width="1" opacity="0.996078431372549" d="M 717.5 198 L 718.5 200 L 717.5 198 Z " /><path fill="rgb(40,183,185)" stroke="rgb(40,183,185)" stroke-width="1" opacity="0.996078431372549" d="M 723.5 203 L 724.5 205 L 723.5 203 Z " /><path fill="rgb(40,183,185)" stroke="rgb(40,183,185)" stroke-width="1" opacity="0.996078431372549" d="M 729.5 208 L 732.5 212 L 729.5 208 Z " /><path fill="rgb(40,183,185)" stroke="rgb(40,183,185)" stroke-width="1" opacity="0.996078431372549" d="M 737.5 215 L 740.5 219 L 737.5 215 Z " /><path fill="rgb(40,183,185)" stroke="rgb(40,183,185)" stroke-width="1" opacity="0.996078431372549" d="M 747.5 224 L 749.5 227 L 747.5 224 Z " /><path fill="rgb(40,183,185)" stroke="rgb(40,183,185)" stroke-width="1" opacity="0.996078431372549" d="M 751.5 228 L 754.5 232 L 751.5 228 Z " /><path fill="rgb(40,183,185)" stroke="rgb(40,183,185)" stroke-width="1" opacity="0.996078431372549" d="M 778.5 255 L 781.5 259 L 778.5 255 Z " /><path fill="rgb(40,183,185)" stroke="rgb(40,183,185)" stroke-width="1" opacity="0.996078431372549" d="M 783.5 260 L 785.5 263 L 783.5 260 Z " /><path fill="rgb(40,183,185)" stroke="rgb(40,183,185)" stroke-width="1" opacity="0.996078431372549" d="M 791.5 269 L 794.5 273 L 791.5 269 Z " /><path fill="rgb(40,183,185)" stroke="rgb(40,183,185)" stroke-width="1" opacity="0.996078431372549" d="M 776.5 270 L 777.5 272 L 776.5 270 Z " /><path fill="rgb(40,183,185)" stroke="rgb(40,183,185)" stroke-width="1" opacity="0.996078431372549" d="M 783.5 275 L 784.5 277 L 783.5 275 Z " /><path fill="rgb(40,183,185)" stroke="rgb(40,183,185)" stroke-width="1" opacity="0.996078431372549" d="M 798.5 277 L 801.5 281 L 798.5 277 Z " /><path fill="rgb(40,183,185)" stroke="rgb(40,183,185)" stroke-width="1" opacity="0.996078431372549" d="M 787.5 278 L 788.5 280 L 787.5 278 Z " /><path fill="rgb(40,183,185)" stroke="rgb(40,183,185)" stroke-width="1" opacity="0.996078431372549" d="M 347 279 Q 350 278 349 281 Q 346 282 347 279 Z " /><path fill="rgb(40,183,185)" stroke="rgb(40,183,185)" stroke-width="1" opacity="0.996078431372549" d="M 791.5 281 L 792.5 283 L 791.5 281 Z " /><path fill="rgb(40,183,185)" stroke="rgb(40,183,185)" stroke-width="1" opacity="0.996078431372549" d="M 795.5 284 L 796.5 286 L 795.5 284 Z " /><path fill="rgb(40,183,185)" stroke="rgb(40,183,185)" stroke-width="1" opacity="0.996078431372549" d="M 804.5 284 L 806.5 287 L 804.5 284 Z " /><path fill="rgb(40,183,185)" stroke="rgb(40,183,185)" stroke-width="1" opacity="0.996078431372549" d="M 361 286 Q 364 285 363 288 Q 360 289 361 286 Z " /><path fill="rgb(40,183,185)" stroke="rgb(40,183,185)" stroke-width="1" opacity="0.996078431372549" d="M 799.5 287 L 800.5 289 L 799.5 287 Z " /><path fill="rgb(40,183,185)" stroke="rgb(40,183,185)" stroke-width="1" opacity="0.996078431372549" d="M 809.5 290 L 811.5 293 L 809.5 290 Z " /><path fill="rgb(40,183,185)" stroke="rgb(40,183,185)" stroke-width="1" opacity="0.996078431372549" d="M 804.5 291 L 805.5 293 L 804.5 291 Z " /><path fill="rgb(40,183,185)" stroke="rgb(40,183,185)" stroke-width="1" opacity="0.996078431372549" d="M 809.5 295 L 810.5 297 L 809.5 295 Z " /><path fill="rgb(40,183,185)" stroke="rgb(40,183,185)" stroke-width="1" opacity="0.996078431372549" d="M 814.5 296 L 815.5 298 L 814.5 296 Z " /><path fill="rgb(40,183,185)" stroke="rgb(40,183,185)" stroke-width="1" opacity="0.996078431372549" d="M 377.5 298 L 380 299.5 L 381.5 302 L 384 303.5 L 383.5 305 L 383 303 L 379 300.5 Q 379.8 298.3 377.5 299 L 377.5 298 Z " /><path fill="rgb(40,183,185)" stroke="rgb(40,183,185)" stroke-width="1" opacity="0.996078431372549" d="M 814.5 299 L 815.5 301 L 814.5 299 Z " /><path fill="rgb(40,183,185)" stroke="rgb(40,183,185)" stroke-width="1" opacity="0.996078431372549" d="M 818.5 301 L 822 305.5 L 819 303.5 L 818.5 301 Z " /><path fill="rgb(40,183,185)" stroke="rgb(40,183,185)" stroke-width="1" opacity="0.996078431372549" d="M 387 309 Q 389.7 307.9 389 310.5 L 389.5 312 L 387 311 L 387 309 Z " /><path fill="rgb(40,183,185)" stroke="rgb(40,183,185)" stroke-width="1" opacity="0.996078431372549" d="M 394 319 Q 397 318 396 321 Q 393 322 394 319 Z " /><path fill="rgb(40,183,185)" stroke="rgb(40,183,185)" stroke-width="1" opacity="0.996078431372549" d="M 404 343 Q 407 342 406 345 Q 403 346 404 343 Z " /><path fill="rgb(40,183,185)" stroke="rgb(40,183,185)" stroke-width="1" opacity="0.996078431372549" d="M 341 353 Q 344 352 343 355 Q 340 356 341 353 Z " /><path fill="rgb(40,183,185)" stroke="rgb(40,183,185)" stroke-width="1" opacity="0.996078431372549" d="M 344 363 Q 347 362 346 365 Q 343 366 344 363 Z " /><path fill="rgb(40,183,185)" stroke="rgb(40,183,185)" stroke-width="1" opacity="0.996078431372549" d="M 337.5 388 L 339 388.5 L 337 389 L 335.5 392 L 333.5 393 L 334.5 391 Q 336.8 391.8 336 389.5 L 337.5 388 Z " /><path fill="rgb(40,183,185)" stroke="rgb(40,183,185)" stroke-width="1" opacity="0.996078431372549" d="M 154 399 Q 157 398 156 401 Q 153 402 154 399 Z " /><path fill="rgb(40,183,185)" stroke="rgb(40,183,185)" stroke-width="1" opacity="0.996078431372549" d="M 314 399 Q 317 398 316 401 Q 313 402 314 399 Z " /><path fill="rgb(40,183,185)" stroke="rgb(40,183,185)" stroke-width="1" opacity="0.996078431372549" d="M 390.5 422 L 390 423.5 L 389.5 425 L 389 423.5 L 390.5 422 Z " /><path fill="rgb(40,183,185)" stroke="rgb(40,183,185)" stroke-width="1" opacity="0.996078431372549" d="M 384.5 429 L 386 429.5 L 384 430 L 382.5 433 Q 380.3 432.3 381 434.5 L 379 438 L 374.5 440 L 374.5 439 L 377 437.5 Q 376.3 435.3 378.5 436 L 381.5 432 Q 383.8 432.8 383 430.5 L 384.5 429 Z " /><path fill="rgb(40,183,185)" stroke="rgb(40,183,185)" stroke-width="1" opacity="0.996078431372549" d="M 364 446 Q 367 445 366 448 Q 363 449 364 446 Z " /><path fill="rgb(40,183,185)" stroke="rgb(40,183,185)" stroke-width="1" opacity="0.996078431372549" d="M 357 450 Q 360 449 359 452 Q 356 453 357 450 Z " /><path fill="rgb(40,183,185)" stroke="rgb(40,183,185)" stroke-width="1" opacity="0.996078431372549" d="M 351 453 Q 354 452 353 455 Q 350 456 351 453 Z " /><path fill="rgb(40,183,185)" stroke="rgb(40,183,185)" stroke-width="1" opacity="0.996078431372549" d="M 344 456 Q 347 455 346 458 Q 343 459 344 456 Z " /><path fill="rgb(40,183,185)" stroke="rgb(40,183,185)" stroke-width="1" opacity="0.996078431372549" d="M 236.5 465 L 239 466 Q 240 469 237 468 L 236.5 465 Z " /><path fill="rgb(40,183,185)" stroke="rgb(40,183,185)" stroke-width="1" opacity="0.996078431372549" d="M 240.5 470 L 241 472 L 243 472.5 L 241.5 473 L 240.5 470 Z " /><path fill="rgb(40,183,185)" stroke="rgb(40,183,185)" stroke-width="1" opacity="0.996078431372549" d="M 244 476 Q 246.7 474.9 246 477.5 L 246.5 479 L 244 478 L 244 476 Z " /><path fill="rgb(40,183,185)" stroke="rgb(40,183,185)" stroke-width="1" opacity="0.996078431372549" d="M 249.5 482 L 251 484.5 L 250 484.5 L 249.5 482 Z " /><path fill="rgb(40,183,185)" stroke="rgb(40,183,185)" stroke-width="1" opacity="0.996078431372549" d="M 253.5 488 L 256 489.5 L 254.5 490 L 253.5 488 Z " /><path fill="rgb(40,183,185)" stroke="rgb(40,183,185)" stroke-width="1" opacity="0.996078431372549" d="M 257 493 Q 259.7 491.9 259 494.5 L 259.5 496 L 257 495 L 257 493 Z " /><path fill="rgb(40,183,185)" stroke="rgb(40,183,185)" stroke-width="1" opacity="0.996078431372549" d="M 261.5 499 L 264 500.5 L 263.5 502 L 263 500 L 261.5 499 Z " /><path fill="rgb(40,183,185)" stroke="rgb(40,183,185)" stroke-width="1" opacity="0.996078431372549" d="M 266.5 505 L 269 506 Q 270 509 267 508 L 266.5 505 Z " /><path fill="rgb(40,183,185)" stroke="rgb(40,183,185)" stroke-width="1" opacity="0.996078431372549" d="M 270.5 510 L 271 512 L 273 512.5 L 271.5 513 L 270.5 510 Z " /><path fill="rgb(40,183,185)" stroke="rgb(40,183,185)" stroke-width="1" opacity="0.996078431372549" d="M 274 516 Q 276.7 514.9 276 517.5 L 276.5 519 L 274 518 L 274 516 Z " /><path fill="rgb(40,183,185)" stroke="rgb(40,183,185)" stroke-width="1" opacity="0.996078431372549" d="M 279.5 522 L 281 524.5 L 280 524.5 L 279.5 522 Z " /><path fill="rgb(40,184,186)" stroke="rgb(40,184,186)" stroke-width="1" opacity="1" d="M 269.5 48 L 319.5 48 L 320.5 49 L 338.5 49 L 339.5 50 L 352.5 50 L 353.5 51 L 380.5 53 L 407.5 58 L 413.5 58 L 478.5 73 L 513.5 84 L 537.5 94 L 540.5 94 L 575.5 109 L 609.5 126 L 655.5 153 L 704.5 188 L 751 227 L 754.5 232 L 778 254.5 L 781.5 259 Q 783.8 258.3 783 260.5 L 819 302.5 L 814.5 299 L 776.5 270 L 741.5 247 L 710.5 229 L 647.5 199 L 592.5 179 L 544.5 166 L 486.5 155 L 462.5 153 L 461.5 152 L 452.5 152 L 451.5 151 L 421.5 150 L 420.5 149 L 363.5 149 L 362.5 150 L 345.5 150 L 344.5 151 L 333.5 151 L 332.5 152 L 305.5 154 L 247.5 164 L 194.5 178 L 191.5 180 L 164.5 188 L 140.5 198 L 137 198 L 121 170.5 L 121 167 L 156 154.5 L 124.5 101 L 111.5 104 L 91.5 112 L 88.5 112 L 73 86.5 L 76.5 84 L 111.5 73 L 176.5 58 L 182.5 58 L 209.5 53 L 226.5 52 L 227.5 51 L 250.5 50 L 251.5 49 L 268.5 49 L 269.5 48 Z " /><path fill="rgb(40,184,186)" stroke="rgb(40,184,186)" stroke-width="1" opacity="1" d="M 91 273 L 325.5 273 Q 324.6 276.2 332.5 275 L 339 276 Q 337.6 279.7 343.5 278 L 347 279 Q 345.7 282.3 350.5 281 L 357 283 Q 355.8 286 359.5 285 L 361 288 L 367 289 Q 365.9 291.7 368.5 291 Q 369.6 293.8 373 293 L 374.5 296 Q 376.8 295.3 376 297.5 L 379 299 L 381.5 303 Q 383.8 302.3 383 304.5 L 386 306 L 387 311 L 391 313.5 L 391 316 Q 393.7 314.9 393 317.5 L 394 321 Q 396.7 319.9 396 322.5 L 397 326 Q 400 324.8 399 328.5 L 401 336 Q 404.7 334.6 403 340.5 L 404 345 Q 407.5 343.9 406 351.5 L 407 352.5 L 407 366 L 409 366 L 409 371 L 407 371.5 L 407 384.5 L 406 385.5 L 406 392 Q 402.7 390.7 404 395.5 L 403 401 Q 400.3 399.9 401 402.5 L 399 411 Q 396.3 409.9 397 412.5 L 396 415 Q 393 413.8 394 417.5 L 393 421 L 389 423.5 L 389 426 Q 386.3 424.9 387 427.5 L 383 430.5 Q 383.8 432.8 381.5 432 L 378.5 436 Q 376.3 435.3 377 437.5 L 373 440.5 Q 373.8 442.8 371.5 442 L 369 443 Q 370.1 445.7 367.5 445 L 364 446 L 362.5 449 L 357 450 L 355.5 453 Q 350.1 451.1 351 454.5 Q 349.4 457.5 344 456 Q 345.3 459.3 340.5 458 Q 336.3 461 329 460 L 328.5 462 L 313.5 462 L 314 463.5 Q 313.3 466.1 316 465 L 316 467.5 L 320 470.5 L 321 475 L 324 476.5 Q 322.9 479.8 325.5 479 L 327 482 Q 330 480.8 329 484.5 L 331 488 Q 333.7 486.9 333 489.5 L 334 492 L 337 493.5 L 337 496 Q 339.7 494.9 339 497.5 Q 341.8 498.6 341 502 L 344 503.5 Q 343.3 506.1 346 505 L 346 507.5 L 350 510.5 L 351 515 L 354 516.5 Q 352.9 519.8 355.5 519 L 357 522 Q 360 520.8 359 524.5 L 361 528 Q 363.7 526.9 363 529.5 L 364 532 L 367 533.5 L 367 536 Q 369.7 534.9 369 537.5 Q 371.7 538.6 371 542 L 374 543.5 Q 373.3 546.1 376 545 L 376 547.5 L 380 550.5 L 381 555 L 384 556.5 Q 382.9 559.8 385.5 559 L 387 562 Q 390 560.8 389 564.5 L 391 568 Q 393.7 566.9 393 569.5 L 394 572 L 397 573.5 L 397 576 Q 399.7 574.9 399 577.5 Q 401.8 578.6 401 582 L 404 583.5 Q 403.3 586.1 406 585 L 406 587.5 L 406.5 589 L 329.5 589 L 327 588 L 326 583 L 323 581.5 L 321 578.5 L 318.5 575 Q 315.9 575.8 317 572.5 L 316 570 L 313 568.5 Q 314.1 565.2 311.5 566 L 309 560 L 304 558 L 303 553 L 300 551.5 L 298.5 548 Q 296.3 548.8 297 546.5 L 296 543 L 293 541.5 L 291 538.5 L 288.5 535 Q 285.9 535.8 287 532.5 L 286 530 L 283 528.5 L 283 526 Q 280 527.3 281 523.5 L 279 520 Q 276.3 521.1 277 518.5 L 276 516 L 273 514.5 L 273 512 Q 270.3 513.1 271 510.5 Q 268.3 509.4 269 506 L 266 504.5 Q 266.7 501.9 264 503 L 264 500.5 L 260 497.5 L 259 493 L 256 491.5 Q 257.1 488.2 254.5 489 L 253 486 Q 250 487.3 251 483.5 L 249 480 Q 246.3 481.1 247 478.5 L 246 476 L 243 474.5 L 243 472 Q 240.3 473.1 241 470.5 Q 238.3 469.4 239 466 L 236 464.5 Q 236.8 462.3 234.5 463 L 233.5 462 L 154 462 L 154 589 L 91 589 L 91 273 Z M 154 336 L 154 401 L 316 401 L 316 399 L 323 399 L 324 398 Q 327 399 326 396 L 330 395 Q 332 396 331 393 L 337 391 Q 336 388 339 389 L 340 384 L 343 382 L 344 379 Q 342 371 346 372 L 346 364 L 344 363 L 343 358 Q 345 352 341 353 L 340 350 L 337 348 L 336 345 Q 333 346 334 344 L 331 341 Q 328 342 329 339 L 326 338 Q 320 339 321 336 L 154 336 Z " /><path fill="rgb(40,184,186)" stroke="rgb(40,184,186)" stroke-width="1" opacity="1" d="M 440 273 L 752.5 273 L 753 273.5 L 753 336 L 630 336 L 630 588.5 L 629.5 589 L 567 589 L 567 336 L 440 336 L 440 273 Z " /></svg>